<svg xmlns="http://www.w3.org/2000/svg" viewBox="0 0 900 560" role="img" aria-label="Golden glow skin care illustration">
  <defs>
    <linearGradient id="bg" x1="0" y1="0" x2="1" y2="1"><stop stop-color="#fff8bd"/><stop offset="0.46" stop-color="#ffd36c"/><stop offset="1" stop-color="#2fbf75"/></linearGradient>
    <linearGradient id="jar" x1="0" y1="0" x2="1" y2="1"><stop stop-color="#ffffff"/><stop offset="1" stop-color="#ffe38d"/></linearGradient>
    <filter id="shadow" x="-20%" y="-20%" width="140%" height="150%"><feDropShadow dx="0" dy="18" stdDeviation="18" flood-color="#6d5a00" flood-opacity="0.24"/></filter>
    <filter id="glow" x="-40%" y="-40%" width="180%" height="180%"><feGaussianBlur stdDeviation="14" result="b"/><feMerge><feMergeNode in="b"/><feMergeNode in="SourceGraphic"/></feMerge></filter>
  </defs>
  <rect width="900" height="560" fill="url(#bg)"/>
  <circle cx="184" cy="128" r="120" fill="#ffffff" opacity="0.36"/>
  <circle cx="694" cy="160" r="160" fill="#fff07a" opacity="0.34" filter="url(#glow)"/>
  <path d="M0 402c122-60 246-76 372-48 161 36 319 113 528 34v172H0Z" fill="#fdf9df" opacity="0.64"/>
  <g filter="url(#shadow)">
    <circle cx="448" cy="330" r="106" fill="url(#jar)"/>
    <ellipse cx="448" cy="298" rx="104" ry="28" fill="#ffffff" opacity="0.9"/>
    <ellipse cx="448" cy="318" rx="78" ry="18" fill="#ffc95f" opacity="0.8"/>
    <rect x="356" y="196" width="184" height="58" rx="29" fill="#1f8f3a"/>
    <rect x="382" y="174" width="132" height="34" rx="17" fill="#fff6cf"/>
  </g>
  <g fill="#1f8f3a" opacity="0.86">
    <path d="M634 270c56-92 118-112 184-60-86 14-144 42-184 60Z"/>
    <path d="M268 250c-82-28-126-12-132 48 62-28 104-42 132-48Z"/>
    <path d="M590 350c58 12 90 44 96 96-54-28-86-60-96-96Z"/>
  </g>
  <g fill="#ffffff" opacity="0.92"><path d="M216 84l12 28 29 12-29 12-12 29-12-29-30-12 30-12 12-28Z"/><path d="M704 308l9 20 21 9-21 9-9 21-9-21-21-9 21-9 9-20Z"/><circle cx="576" cy="116" r="7"/></g>
</svg>