<svg xmlns="http://www.w3.org/2000/svg" viewBox="0 0 1200 420" role="img" aria-label="Creative beauty gift finder illustration">
  <defs>
    <linearGradient id="bg" x1="0" y1="0" x2="1" y2="1"><stop stop-color="#ecffd8"/><stop offset="0.48" stop-color="#d9fff3"/><stop offset="1" stop-color="#ffe4c8"/></linearGradient>
    <linearGradient id="box" x1="0" y1="0" x2="1" y2="1"><stop stop-color="#0f8f56"/><stop offset="1" stop-color="#b9d80d"/></linearGradient>
    <linearGradient id="warm" x1="0" y1="0" x2="1" y2="1"><stop stop-color="#ff8c5a"/><stop offset="1" stop-color="#ffd84b"/></linearGradient>
    <filter id="shadow" x="-20%" y="-20%" width="140%" height="150%"><feDropShadow dx="0" dy="20" stdDeviation="22" flood-color="#0d4c2d" flood-opacity="0.22"/></filter>
  </defs>
  <rect width="1200" height="420" fill="url(#bg)"/>
  <circle cx="980" cy="72" r="145" fill="#ffffff" opacity="0.44"/>
  <circle cx="170" cy="350" r="190" fill="#c8f27a" opacity="0.38"/>
  <path d="M745 48c124 8 243 74 276 178 27 84-18 147-121 163-134 21-329-34-377-128-46-88 64-222 222-213Z" fill="#ffffff" opacity="0.5"/>
  <g filter="url(#shadow)">
    <rect x="705" y="152" width="230" height="164" rx="28" fill="url(#box)"/>
    <path d="M820 152v164M705 218h230" stroke="#fff8dc" stroke-width="18" opacity="0.85"/>
    <path d="M790 150c-50-54-5-96 39-30 44-66 91-23 39 30" fill="none" stroke="#fff8dc" stroke-width="18" stroke-linecap="round"/>
  </g>
  <g filter="url(#shadow)">
    <rect x="318" y="96" width="108" height="250" rx="42" fill="#ffffff"/>
    <rect x="338" y="126" width="68" height="178" rx="28" fill="url(#warm)"/>
    <rect x="352" y="64" width="40" height="58" rx="14" fill="#1c8b68"/>
    <rect x="342" y="48" width="60" height="28" rx="14" fill="#ffefbf"/>
  </g>
  <g filter="url(#shadow)">
    <rect x="470" y="132" width="118" height="206" rx="30" fill="#f9fff0"/>
    <rect x="492" y="160" width="74" height="132" rx="22" fill="#a7e4f5"/>
    <circle cx="529" cy="102" r="36" fill="#172f2d"/>
    <circle cx="529" cy="102" r="20" fill="#d4ff5c"/>
  </g>
  <g filter="url(#shadow)">
    <circle cx="620" cy="298" r="60" fill="#ffffff"/>
    <circle cx="620" cy="298" r="44" fill="#ffb1a3"/>
    <ellipse cx="620" cy="288" rx="44" ry="13" fill="#fff5e6" opacity="0.72"/>
  </g>
  <g fill="none" stroke-linecap="round" stroke-width="8">
    <path d="M212 104c56 30 82 78 74 144" stroke="#1f8f3a"/>
    <path d="M245 112c20-42 63-48 102-18" stroke="#ff9b5f"/>
    <path d="M960 296c64-4 104-30 118-78" stroke="#1f8f3a" opacity="0.7"/>
  </g>
  <g fill="#1d1d1f">
    <circle cx="235" cy="180" r="7"/><circle cx="266" cy="206" r="5"/><circle cx="1010" cy="150" r="6"/><circle cx="1056" cy="188" r="4"/>
  </g>
  <g fill="#ffffff" opacity="0.86">
    <path d="M246 72l13 28 30 12-30 12-13 29-13-29-30-12 30-12 13-28Z"/>
    <path d="M1010 264l10 21 22 9-22 9-10 22-10-22-23-9 23-9 10-21Z"/>
  </g>
</svg>