<svg xmlns="http://www.w3.org/2000/svg" viewBox="0 0 900 560" role="img" aria-label="Beauty detector scanner illustration">
  <defs>
    <linearGradient id="bg" x1="0" y1="0" x2="1" y2="1"><stop stop-color="#051b2a"/><stop offset="0.48" stop-color="#063d7a"/><stop offset="1" stop-color="#20dca3"/></linearGradient>
    <linearGradient id="scan" x1="0" y1="0" x2="1" y2="0"><stop stop-color="#d8ff4f"/><stop offset="0.5" stop-color="#53f0ff"/><stop offset="1" stop-color="#ffffff"/></linearGradient>
    <filter id="glow" x="-40%" y="-40%" width="180%" height="180%"><feGaussianBlur stdDeviation="10" result="b"/><feMerge><feMergeNode in="b"/><feMergeNode in="SourceGraphic"/></feMerge></filter>
    <filter id="shadow" x="-20%" y="-20%" width="140%" height="150%"><feDropShadow dx="0" dy="18" stdDeviation="18" flood-color="#001525" flood-opacity="0.38"/></filter>
  </defs>
  <rect width="900" height="560" fill="url(#bg)"/>
  <path d="M78 86h744v388H78Z" fill="#06213a" opacity="0.64"/>
  <g opacity="0.28" stroke="#b9fff0" stroke-width="2"><path d="M78 166h744M78 246h744M78 326h744M78 406h744M202 86v388M326 86v388M450 86v388M574 86v388M698 86v388"/></g>
  <rect x="146" y="128" width="606" height="314" rx="36" fill="none" stroke="url(#scan)" stroke-width="10" filter="url(#glow)"/>
  <path d="M180 266h540" stroke="url(#scan)" stroke-width="8" stroke-linecap="round" filter="url(#glow)"/>
  <g filter="url(#shadow)">
    <rect x="276" y="196" width="96" height="188" rx="34" fill="#ffffff"/>
    <rect x="296" y="226" width="56" height="108" rx="22" fill="#ff8aa3"/>
    <rect x="304" y="154" width="40" height="56" rx="14" fill="#d8ff4f"/>
    <rect x="500" y="172" width="116" height="236" rx="38" fill="#e6fbff"/>
    <rect x="526" y="210" width="64" height="132" rx="26" fill="#52e0e5"/>
    <circle cx="558" cy="136" r="30" fill="#101b2f"/>
  </g>
  <g fill="none" stroke="#d8ff4f" stroke-width="8" stroke-linecap="round" filter="url(#glow)">
    <circle cx="640" cy="356" r="46"/><path d="M674 390l54 54"/>
  </g>
  <g fill="#ffffff"><circle cx="182" cy="132" r="6"/><circle cx="716" cy="156" r="5"/><circle cx="210" cy="424" r="4"/></g>
</svg>