<svg xmlns="http://www.w3.org/2000/svg" viewBox="0 0 900 560" role="img" aria-label="Morning skin care routine illustration">
  <defs>
    <linearGradient id="bg" x1="0" y1="0" x2="1" y2="1"><stop stop-color="#fff0d7"/><stop offset="0.48" stop-color="#ffd0c4"/><stop offset="1" stop-color="#ffe96a"/></linearGradient>
    <linearGradient id="tube" x1="0" y1="0" x2="1" y2="1"><stop stop-color="#ffffff"/><stop offset="1" stop-color="#ffb799"/></linearGradient>
    <filter id="shadow" x="-20%" y="-20%" width="140%" height="150%"><feDropShadow dx="0" dy="18" stdDeviation="18" flood-color="#8b3a2e" flood-opacity="0.22"/></filter>
  </defs>
  <rect width="900" height="560" fill="url(#bg)"/>
  <circle cx="126" cy="118" r="88" fill="#fff7cb" opacity="0.85"/>
  <circle cx="702" cy="60" r="160" fill="#ff8a66" opacity="0.24"/>
  <path d="M0 416c164-94 335-94 512 0s314 92 388 38v106H0Z" fill="#fff9ef" opacity="0.78"/>
  <g filter="url(#shadow)">
    <rect x="365" y="148" width="136" height="286" rx="48" fill="url(#tube)"/>
    <rect x="390" y="92" width="86" height="72" rx="26" fill="#ff705d"/>
    <rect x="389" y="258" width="88" height="16" rx="8" fill="#ffd15a"/>
    <rect x="397" y="288" width="72" height="12" rx="6" fill="#ffffff" opacity="0.9"/>
  </g>
  <g filter="url(#shadow)">
    <circle cx="582" cy="368" r="88" fill="#ffffff"/>
    <circle cx="582" cy="368" r="66" fill="#ffc3ba"/>
    <ellipse cx="582" cy="344" rx="66" ry="18" fill="#fff6ef" opacity="0.86"/>
  </g>
  <g filter="url(#shadow)">
    <rect x="190" y="214" width="86" height="220" rx="34" fill="#ffffff"/>
    <rect x="209" y="248" width="48" height="132" rx="24" fill="#55d6be"/>
    <rect x="204" y="172" width="58" height="56" rx="18" fill="#ffb13d"/>
  </g>
  <path d="M680 294c48-82 96-102 146-60-72 14-116 42-146 60Z" fill="#2f9f58" opacity="0.72"/>
  <path d="M206 126c-40 26-70 26-94 0 46-12 76-12 94 0Z" fill="#1f8f3a" opacity="0.58"/>
  <g fill="#ffffff" opacity="0.9"><circle cx="724" cy="342" r="12"/><circle cx="762" cy="318" r="8"/><circle cx="150" cy="306" r="10"/></g>
</svg>